<?xml version="1.0" encoding="utf-8"?>
<!-- Generator: Adobe Illustrator 18.1.1, SVG Export Plug-In . SVG Version: 6.00 Build 0)  -->
<!DOCTYPE svg PUBLIC "-//W3C//DTD SVG 1.1//EN" "http://www.w3.org/Graphics/SVG/1.1/DTD/svg11.dtd">
<svg version="1.1" id="Layer_1" xmlns="http://www.w3.org/2000/svg" xmlns:xlink="http://www.w3.org/1999/xlink" x="0px" y="0px"
	 viewBox="-534 283 130 36" enable-background="new -534 283 130 36" xml:space="preserve">
<g>
	<g>
		<path fill="#D95A5A" d="M-480.9,312c0-0.2-0.1-0.4-0.3-0.6c-0.2-0.2-0.5-0.3-0.9-0.4c-0.5-0.1-1-0.3-1.3-0.6
			c-0.3-0.3-0.5-0.6-0.5-1c0-0.4,0.2-0.7,0.5-1s0.8-0.4,1.3-0.4c0.6,0,1,0.2,1.3,0.5c0.3,0.3,0.5,0.7,0.5,1.1l0,0h-0.7
			c0-0.3-0.1-0.5-0.3-0.7c-0.2-0.2-0.5-0.3-0.9-0.3c-0.3,0-0.6,0.1-0.8,0.2c-0.2,0.2-0.3,0.4-0.3,0.6c0,0.2,0.1,0.4,0.3,0.6
			c0.2,0.1,0.5,0.3,1,0.4c0.5,0.1,1,0.3,1.2,0.6c0.3,0.3,0.4,0.6,0.4,1c0,0.4-0.2,0.7-0.5,1c-0.3,0.3-0.8,0.4-1.3,0.4
			c-0.5,0-1-0.1-1.4-0.4c-0.4-0.3-0.6-0.7-0.6-1.1l0,0h0.7c0,0.3,0.1,0.6,0.4,0.8c0.2,0.2,0.5,0.3,0.9,0.3c0.4,0,0.6-0.1,0.8-0.2
			C-481,312.5-480.9,312.3-480.9,312z"/>
		<path fill="#D95A5A" d="M-473.1,311.2c0,0.6-0.2,1.1-0.6,1.6c-0.4,0.4-0.9,0.6-1.5,0.6c-0.6,0-1.1-0.2-1.5-0.6
			c-0.4-0.4-0.6-0.9-0.6-1.6v-0.9c0-0.6,0.2-1.1,0.6-1.6c0.4-0.4,0.9-0.6,1.5-0.6c0.6,0,1.1,0.2,1.5,0.6c0.4,0.4,0.6,0.9,0.6,1.6
			V311.2z M-473.8,310.3c0-0.5-0.1-0.9-0.4-1.2c-0.3-0.3-0.6-0.5-1-0.5c-0.4,0-0.7,0.2-1,0.5c-0.2,0.3-0.4,0.7-0.4,1.2v0.9
			c0,0.5,0.1,0.9,0.4,1.2c0.2,0.3,0.6,0.5,1,0.5c0.4,0,0.8-0.1,1-0.4s0.4-0.7,0.4-1.2V310.3z"/>
		<path fill="#D95A5A" d="M-469.2,312.8h2.4v0.5h-3.1v-5.1h0.7V312.8z"/>
		<path fill="#D95A5A" d="M-460.2,308.2v3.5c0,0.6-0.2,1-0.5,1.3c-0.4,0.3-0.8,0.4-1.4,0.4c-0.6,0-1-0.1-1.4-0.4
			c-0.4-0.3-0.5-0.7-0.5-1.3v-3.5h0.7v3.5c0,0.4,0.1,0.7,0.3,0.9c0.2,0.2,0.5,0.3,0.9,0.3c0.4,0,0.7-0.1,0.9-0.3
			c0.2-0.2,0.4-0.5,0.4-0.9v-3.5H-460.2z"/>
		<path fill="#D95A5A" d="M-453.4,308.7h-1.7v4.6h-0.7v-4.6h-1.6v-0.5h4V308.7z"/>
		<path fill="#D95A5A" d="M-449.8,313.3h-0.7v-5.1h0.7V313.3z"/>
		<path fill="#D95A5A" d="M-442.4,311.2c0,0.6-0.2,1.1-0.6,1.6c-0.4,0.4-0.9,0.6-1.5,0.6c-0.6,0-1.1-0.2-1.5-0.6
			c-0.4-0.4-0.6-0.9-0.6-1.6v-0.9c0-0.6,0.2-1.1,0.6-1.6c0.4-0.4,0.9-0.6,1.5-0.6c0.6,0,1.1,0.2,1.5,0.6c0.4,0.4,0.6,0.9,0.6,1.6
			V311.2z M-443.1,310.3c0-0.5-0.1-0.9-0.4-1.2c-0.3-0.3-0.6-0.5-1-0.5c-0.4,0-0.7,0.2-1,0.5c-0.2,0.3-0.4,0.7-0.4,1.2v0.9
			c0,0.5,0.1,0.9,0.4,1.2c0.2,0.3,0.6,0.5,1,0.5c0.4,0,0.8-0.1,1-0.4c0.3-0.3,0.4-0.7,0.4-1.2V310.3z"/>
		<path fill="#D95A5A" d="M-435.3,313.3h-0.7l-2.5-4l0,0v4h-0.7v-5.1h0.7l2.5,4l0,0v-4h0.7V313.3z"/>
		<path fill="#D95A5A" d="M-429.1,312c0-0.2-0.1-0.4-0.3-0.6c-0.2-0.2-0.5-0.3-0.9-0.4c-0.5-0.1-1-0.3-1.3-0.6
			c-0.3-0.3-0.5-0.6-0.5-1c0-0.4,0.2-0.7,0.5-1c0.3-0.3,0.8-0.4,1.3-0.4c0.6,0,1,0.2,1.3,0.5c0.3,0.3,0.5,0.7,0.5,1.1l0,0h-0.7
			c0-0.3-0.1-0.5-0.3-0.7c-0.2-0.2-0.5-0.3-0.9-0.3c-0.3,0-0.6,0.1-0.8,0.2c-0.2,0.2-0.3,0.4-0.3,0.6c0,0.2,0.1,0.4,0.3,0.6
			s0.5,0.3,1,0.4c0.5,0.1,1,0.3,1.2,0.6c0.3,0.3,0.4,0.6,0.4,1c0,0.4-0.2,0.7-0.5,1c-0.3,0.3-0.8,0.4-1.3,0.4c-0.5,0-1-0.1-1.4-0.4
			c-0.4-0.3-0.6-0.7-0.6-1.1l0,0h0.7c0,0.3,0.1,0.6,0.4,0.8c0.2,0.2,0.5,0.3,0.9,0.3c0.4,0,0.6-0.1,0.8-0.2
			C-429.2,312.5-429.1,312.3-429.1,312z"/>
	</g>
	<g>
		<g>
			<path fill="none" stroke="#00ADEE" stroke-width="0.1" stroke-miterlimit="10" d="M-533.2,303.2"/>
			<path fill="none" stroke="#00ADEE" stroke-width="0.1" stroke-miterlimit="10" d="M-533.2,303.2"/>
			<path fill="#F1706F" d="M-534,319.2c6.9-2.7,14.4-4.1,22.3-4.1c5.6,0,11,0.7,16.2,2.1c0.3,0.1,0.6,0.2,1,0.3
				c1.7,0.5,3.5,1.1,5.1,1.7c-2.8-4.4-6.4-8.3-10.6-11.5c-6.3-4.8-13.9-8.1-22.2-9.1c-1.9-0.2-3.8-0.4-5.8-0.4
				c-1.8,0-3.7,0.1-5.4,0.3c0.6,0,1.1,0,1.7,0c3.1,0,6.1,0.3,9.1,0.9L-534,319.2 M-489.5,319.2L-489.5,319.2L-489.5,319.2
				 M-509.5,284.2c-0.5-0.7-1.3-1.2-2.2-1.2c-0.7,0-1.2,0.2-1.7,0.6c-0.2,0.2-0.5,0.5-0.6,0.7l-1.6,2.7l-4.8,8.4c0.7,0,1.3,0,2,0
				c4.7,0,9.3,0.7,13.6,2c1.3,0.4,2.5,0.8,3.8,1.4"/>
			<linearGradient id="SVGID_1_" gradientUnits="userSpaceOnUse" x1="-492.2826" y1="312.8293" x2="-503.8866" y2="309.116">
				<stop  offset="0" style="stop-color:#F1706F"/>
				<stop  offset="0.5523" style="stop-color:#E56565"/>
				<stop  offset="1" style="stop-color:#D85959"/>
			</linearGradient>
			<path fill="url(#SVGID_1_)" d="M-489.4,319.2c-1.7-0.7-3.4-1.2-5.1-1.7c-0.7-0.9-1.4-1.8-2.1-2.7c-6.6-7.7-15.6-13.3-26-15.4
				c-2.9-0.6-6-0.9-9.1-0.9c-0.6,0-1.1,0-1.7,0c1.8-0.2,3.6-0.3,5.4-0.3c2,0,3.9,0.1,5.8,0.4c8.3,1,15.9,4.3,22.2,9.1
				C-495.9,310.9-492.3,314.8-489.4,319.2z"/>
			<linearGradient id="SVGID_2_" gradientUnits="userSpaceOnUse" x1="-502.2757" y1="296.7573" x2="-510.0214" y2="287.1404">
				<stop  offset="0" style="stop-color:#F1706F"/>
				<stop  offset="0.5523" style="stop-color:#E56565"/>
				<stop  offset="1" style="stop-color:#D85959"/>
			</linearGradient>
			<path fill="url(#SVGID_2_)" d="M-501.1,298.9c-1.2-0.5-2.1-0.8-3.4-1.2l-5.1-10.2l-1.1-2.2l0-0.1c-0.4-0.9-1.3-1.6-2.4-1.6
				c-0.1,0-0.2,0-0.3,0c0.5-0.4,1.1-0.6,1.7-0.6c0.9,0,1.8,0.5,2.2,1.2l0.1,0.1L-501.1,298.9z"/>
		</g>
		<g>
			<path fill="#5C5D5E" d="M-476.3,296.8h-3v8.6h-1.6v-8.6h-3v-1.3h7.6V296.8z"/>
			<path fill="#5C5D5E" d="M-467.3,305.4h-1.6v-4.2h-4.4v4.2h-1.6v-9.9h1.6v4.3h4.4v-4.3h1.6V305.4z"/>
			<path fill="#5C5D5E" d="M-459.2,300.9h-4.3v3.1h5v1.3h-6.7v-9.9h6.6v1.3h-5v2.8h4.3V300.9z"/>
			<path fill="#5C5D5E" d="M-448.3,303.1h-3.9l-0.8,2.3h-1.7l3.6-9.9h1.6l3.6,9.9h-1.7L-448.3,303.1z M-451.7,301.7h2.9l-1.4-4.2h0
				L-451.7,301.7z"/>
			<path fill="#5C5D5E" d="M-443,301.6v3.7h-1.6v-9.9h3.9c1.1,0,1.9,0.3,2.6,0.8c0.6,0.6,0.9,1.3,0.9,2.2c0,0.9-0.3,1.7-0.9,2.2
				c-0.6,0.6-1.5,0.8-2.6,0.8H-443z M-443,300.3h2.2c0.6,0,1.1-0.2,1.4-0.5c0.3-0.3,0.5-0.7,0.5-1.2c0-0.5-0.2-0.9-0.5-1.3
				c-0.3-0.3-0.8-0.5-1.4-0.5h-2.2V300.3z"/>
			<path fill="#5C5D5E" d="M-434.1,301.6v3.7h-1.6v-9.9h3.9c1.1,0,1.9,0.3,2.6,0.8c0.6,0.6,0.9,1.3,0.9,2.2c0,0.9-0.3,1.7-0.9,2.2
				c-0.6,0.6-1.5,0.8-2.6,0.8H-434.1z M-434.1,300.3h2.2c0.6,0,1.1-0.2,1.4-0.5c0.3-0.3,0.5-0.7,0.5-1.2c0-0.5-0.2-0.9-0.5-1.3
				c-0.3-0.3-0.8-0.5-1.4-0.5h-2.2V300.3z"/>
		</g>
	</g>
</g>
</svg>
