<?xml version="1.0" encoding="utf-8"?>
<!-- Generator: Adobe Illustrator 18.1.1, SVG Export Plug-In . SVG Version: 6.00 Build 0)  -->
<!DOCTYPE svg PUBLIC "-//W3C//DTD SVG 1.1//EN" "http://www.w3.org/Graphics/SVG/1.1/DTD/svg11.dtd">
<svg version="1.1" id="Layer_1" xmlns="http://www.w3.org/2000/svg" xmlns:xlink="http://www.w3.org/1999/xlink" x="0px" y="0px"
	 viewBox="-534 283 130 36" enable-background="new -534 283 130 36" xml:space="preserve">
<g>
	<g>
		<path fill="#FFFFFF" d="M-482.9,311.3c0-0.2-0.1-0.4-0.2-0.6c-0.2-0.1-0.5-0.3-0.9-0.4c-0.5-0.1-0.9-0.3-1.2-0.5
			c-0.3-0.2-0.4-0.5-0.4-0.9c0-0.4,0.2-0.7,0.5-0.9c0.3-0.3,0.7-0.4,1.2-0.4c0.5,0,1,0.1,1.3,0.4c0.3,0.3,0.5,0.6,0.5,1l0,0h-0.6
			c0-0.3-0.1-0.5-0.3-0.7s-0.5-0.3-0.8-0.3c-0.3,0-0.6,0.1-0.8,0.2c-0.2,0.1-0.3,0.3-0.3,0.6c0,0.2,0.1,0.4,0.3,0.5
			c0.2,0.1,0.5,0.3,0.9,0.4c0.5,0.1,0.9,0.3,1.2,0.6c0.3,0.2,0.4,0.6,0.4,0.9c0,0.4-0.2,0.7-0.5,0.9c-0.3,0.2-0.7,0.4-1.3,0.4
			c-0.5,0-0.9-0.1-1.3-0.4c-0.4-0.3-0.6-0.6-0.5-1.1l0,0h0.6c0,0.3,0.1,0.5,0.3,0.7c0.2,0.2,0.5,0.2,0.8,0.2c0.3,0,0.6-0.1,0.8-0.2
			C-483,311.7-482.9,311.5-482.9,311.3z"/>
		<path fill="#FFFFFF" d="M-475.6,310.5c0,0.6-0.2,1.1-0.6,1.5c-0.4,0.4-0.8,0.6-1.4,0.6c-0.6,0-1-0.2-1.4-0.6
			c-0.4-0.4-0.5-0.9-0.5-1.5v-0.9c0-0.6,0.2-1.1,0.5-1.5s0.8-0.6,1.4-0.6c0.6,0,1.1,0.2,1.4,0.6c0.4,0.4,0.6,0.9,0.6,1.5V310.5z
			 M-476.2,309.6c0-0.4-0.1-0.8-0.4-1.1s-0.6-0.4-1-0.4c-0.4,0-0.7,0.1-0.9,0.4s-0.3,0.6-0.3,1.1v0.9c0,0.4,0.1,0.8,0.3,1.1
			s0.5,0.4,0.9,0.4c0.4,0,0.7-0.1,1-0.4s0.4-0.6,0.4-1.1V309.6z"/>
		<path fill="#FFFFFF" d="M-471.9,312h2.3v0.5h-2.9v-4.8h0.7V312z"/>
		<path fill="#FFFFFF" d="M-463.3,307.6v3.3c0,0.5-0.2,0.9-0.5,1.2c-0.3,0.3-0.8,0.4-1.3,0.4c-0.5,0-1-0.1-1.3-0.4
			c-0.3-0.3-0.5-0.7-0.5-1.2v-3.3h0.7v3.3c0,0.4,0.1,0.6,0.3,0.8c0.2,0.2,0.5,0.3,0.8,0.3c0.4,0,0.6-0.1,0.9-0.3
			c0.2-0.2,0.3-0.5,0.3-0.8v-3.3H-463.3z"/>
		<path fill="#FFFFFF" d="M-456.9,308.1h-1.6v4.3h-0.7v-4.3h-1.6v-0.5h3.8V308.1z"/>
		<path fill="#FFFFFF" d="M-453.5,312.5h-0.7v-4.8h0.7V312.5z"/>
		<path fill="#FFFFFF" d="M-446.5,310.5c0,0.6-0.2,1.1-0.6,1.5c-0.4,0.4-0.8,0.6-1.4,0.6c-0.6,0-1-0.2-1.4-0.6
			c-0.4-0.4-0.5-0.9-0.5-1.5v-0.9c0-0.6,0.2-1.1,0.5-1.5c0.4-0.4,0.8-0.6,1.4-0.6c0.6,0,1.1,0.2,1.4,0.6c0.4,0.4,0.6,0.9,0.6,1.5
			V310.5z M-447.2,309.6c0-0.4-0.1-0.8-0.4-1.1c-0.2-0.3-0.6-0.4-1-0.4c-0.4,0-0.7,0.1-0.9,0.4c-0.2,0.3-0.3,0.6-0.3,1.1v0.9
			c0,0.4,0.1,0.8,0.3,1.1c0.2,0.3,0.5,0.4,0.9,0.4c0.4,0,0.7-0.1,1-0.4s0.4-0.6,0.4-1.1V309.6z"/>
		<path fill="#FFFFFF" d="M-439.9,312.5h-0.7l-2.3-3.7l0,0v3.7h-0.7v-4.8h0.7l2.3,3.7l0,0v-3.7h0.7V312.5z"/>
		<path fill="#FFFFFF" d="M-434,311.3c0-0.2-0.1-0.4-0.2-0.6c-0.2-0.1-0.5-0.3-0.9-0.4c-0.5-0.1-0.9-0.3-1.2-0.5
			c-0.3-0.2-0.4-0.5-0.4-0.9c0-0.4,0.2-0.7,0.5-0.9c0.3-0.3,0.7-0.4,1.2-0.4c0.5,0,1,0.1,1.3,0.4s0.5,0.6,0.5,1l0,0h-0.6
			c0-0.3-0.1-0.5-0.3-0.7s-0.5-0.3-0.8-0.3c-0.3,0-0.6,0.1-0.8,0.2c-0.2,0.1-0.3,0.3-0.3,0.6c0,0.2,0.1,0.4,0.3,0.5
			c0.2,0.1,0.5,0.3,0.9,0.4c0.5,0.1,0.9,0.3,1.2,0.6c0.3,0.2,0.4,0.6,0.4,0.9c0,0.4-0.2,0.7-0.5,0.9c-0.3,0.2-0.7,0.4-1.3,0.4
			c-0.5,0-0.9-0.1-1.3-0.4c-0.4-0.3-0.6-0.6-0.5-1.1l0,0h0.6c0,0.3,0.1,0.5,0.3,0.7c0.2,0.2,0.5,0.2,0.8,0.2c0.3,0,0.6-0.1,0.8-0.2
			C-434.1,311.7-434,311.5-434,311.3z"/>
	</g>
	<g>
		<g>
			<path fill="#FFFFFF" stroke="#009EE2" stroke-width="0.1" stroke-miterlimit="10" d="M-532.3,303"/>
			<path fill="#FFFFFF" stroke="#009EE2" stroke-width="0.1" stroke-miterlimit="10" d="M-532.3,303"/>
			<path fill="#FFFFFF" d="M-533,318c6.5-2.5,13.6-3.9,21-3.9c5.3,0,10.4,0.7,15.3,2c0.3,0.1,0.6,0.2,0.9,0.3c1.6,0.5,3.3,1,4.8,1.6
				c-2.7-4.1-6.1-7.8-10-10.8c-5.9-4.6-13.1-7.6-20.9-8.6c-1.8-0.2-3.6-0.3-5.5-0.3c-1.7,0-3.5,0.1-5.1,0.3c0.5,0,1.1,0,1.6,0
				c2.9,0,5.8,0.3,8.6,0.8L-533,318 M-491,318L-491,318L-491,318 M-509.9,285c-0.4-0.7-1.2-1.2-2.1-1.2c-0.6,0-1.2,0.2-1.6,0.6
				c-0.2,0.2-0.4,0.4-0.6,0.7l-1.5,2.6l-4.6,8c0.6,0,1.2,0,1.9,0c4.5,0,8.8,0.7,12.8,1.9c1.2,0.4,2.4,0.8,3.6,1.3"/>
			<path fill="#FFFFFF" d="M-490.9,318c-1.6-0.6-3.2-1.2-4.8-1.6c-0.6-0.9-1.3-1.7-2-2.5c-6.2-7.3-14.8-12.5-24.5-14.5
				c-2.8-0.6-5.6-0.8-8.6-0.8c-0.5,0-1.1,0-1.6,0c1.7-0.2,3.4-0.3,5.1-0.3c1.9,0,3.7,0.1,5.5,0.3c7.8,1,15,4.1,20.9,8.6
				C-497,310.2-493.6,313.9-490.9,318z"/>
			<path fill="#FFFFFF" d="M-501.9,298.9c-1.2-0.5-2-0.8-3.2-1.2l-4.8-9.6l-1.1-2.1l0-0.1c-0.4-0.9-1.3-1.5-2.3-1.5
				c-0.1,0-0.2,0-0.3,0c0.4-0.4,1-0.6,1.6-0.6c0.9,0,1.7,0.5,2.1,1.2l0.1,0.1L-501.9,298.9z"/>
		</g>
		<g>
			<path fill="#FFFFFF" d="M-478.6,296.9h-2.8v8.1h-1.6v-8.1h-2.8v-1.2h7.2V296.9z"/>
			<path fill="#FFFFFF" d="M-470.1,305h-1.5v-4h-4.2v4h-1.6v-9.3h1.6v4.1h4.2v-4.1h1.5V305z"/>
			<path fill="#FFFFFF" d="M-462.4,300.8h-4.1v2.9h4.7v1.2h-6.3v-9.3h6.2v1.2h-4.7v2.6h4.1V300.8z"/>
			<path fill="#FFFFFF" d="M-452.1,302.8h-3.6l-0.7,2.2h-1.6l3.4-9.3h1.5l3.4,9.3h-1.6L-452.1,302.8z M-455.3,301.5h2.8l-1.4-4h0
				L-455.3,301.5z"/>
			<path fill="#FFFFFF" d="M-447.2,301.4v3.5h-1.6v-9.3h3.6c1,0,1.8,0.3,2.4,0.8s0.9,1.2,0.9,2.1c0,0.9-0.3,1.6-0.9,2.1
				c-0.6,0.5-1.4,0.8-2.4,0.8H-447.2z M-447.2,300.2h2.1c0.6,0,1-0.2,1.3-0.5c0.3-0.3,0.4-0.7,0.4-1.2s-0.1-0.9-0.4-1.2
				c-0.3-0.3-0.7-0.5-1.3-0.5h-2.1V300.2z"/>
			<path fill="#FFFFFF" d="M-438.7,301.4v3.5h-1.6v-9.3h3.6c1,0,1.8,0.3,2.4,0.8s0.9,1.2,0.9,2.1c0,0.9-0.3,1.6-0.9,2.1
				c-0.6,0.5-1.4,0.8-2.4,0.8H-438.7z M-438.7,300.2h2.1c0.6,0,1-0.2,1.3-0.5c0.3-0.3,0.4-0.7,0.4-1.2s-0.1-0.9-0.4-1.2
				c-0.3-0.3-0.7-0.5-1.3-0.5h-2.1V300.2z"/>
		</g>
	</g>
</g>
</svg>
